M48
; DRILL file {KiCad (6.0.8)} date Tue Nov 14 22:15:04 2023
; FORMAT={-:-/ absolute / metric / decimal}
; #@! TF.CreationDate,2023-11-14T22:15:04+01:00
; #@! TF.GenerationSoftware,Kicad,Pcbnew,(6.0.8)
; #@! TF.FileFunction,Plated,1,2,PTH
FMAT,2
METRIC
; #@! TA.AperFunction,Plated,PTH,ViaDrill
T1C0.400
; #@! TA.AperFunction,Plated,PTH,ComponentDrill
T2C0.800
; #@! TA.AperFunction,Plated,PTH,ComponentDrill
T3C1.000
%
G90
G05
T1
X63.0Y-105.0
X64.5Y-74.5
X64.5Y-81.5
X68.0Y-91.0
X68.0Y-94.5
X69.5Y-105.5
X71.5Y-44.0
X72.0Y-39.0
X73.0Y-59.0
X73.0Y-63.5
X73.5Y-43.5
X74.5Y-102.0
X75.5Y-94.5
X76.5Y-100.5
X77.5Y-46.0
X77.5Y-96.5
X78.0Y-101.0
X79.0Y-50.5
X79.0Y-69.5
X79.0Y-77.0
X79.0Y-84.0
X79.0Y-94.5
X79.5Y-41.5
X79.5Y-58.5
X79.5Y-101.0
X80.0Y-64.5
X80.5Y-62.0
X81.5Y-100.0
X82.0Y-101.0
X84.5Y-106.0
X85.5Y-100.5
X86.0Y-106.0
X86.5Y-102.5
X87.5Y-95.5
X88.0Y-52.5
X88.0Y-61.5
X88.5Y-70.5
X88.5Y-81.5
X88.5Y-91.0
X88.5Y-93.0
X88.5Y-97.5
X93.0Y-76.5
X94.0Y-81.0
X95.0Y-87.5
T2
X69.0Y-39.0
X69.0Y-41.54
X69.0Y-44.08
X69.0Y-46.62
X69.0Y-49.16
X69.0Y-51.7
X69.0Y-54.24
X69.0Y-56.78
X69.0Y-59.32
X69.0Y-61.86
X69.0Y-64.4
X69.0Y-66.94
X69.0Y-69.48
X69.0Y-72.02
X69.0Y-74.56
X69.0Y-77.1
X69.0Y-79.64
X69.0Y-82.18
X69.0Y-84.72
X69.0Y-87.26
X84.24Y-39.0
X84.24Y-41.54
X84.24Y-44.08
X84.24Y-46.62
X84.24Y-49.16
X84.24Y-51.7
X84.24Y-54.24
X84.24Y-56.78
X84.24Y-59.32
X84.24Y-61.86
X84.24Y-64.4
X84.24Y-66.94
X84.24Y-69.48
X84.24Y-72.02
X84.24Y-74.56
X84.24Y-77.1
X84.24Y-79.64
X84.24Y-82.18
X84.24Y-84.72
X84.24Y-87.26
T3
X88.945Y-105.5
X91.485Y-105.5
X91.735Y-91.415
X91.735Y-93.955
X91.735Y-96.495
X91.735Y-99.035
X91.735Y-101.575
X94.025Y-105.5
X94.275Y-91.415
X94.275Y-93.955
X94.275Y-96.495
X94.275Y-99.035
X94.275Y-101.575
T0
M30
