%TF.GenerationSoftware,KiCad,Pcbnew,(6.0.8)*%
%TF.CreationDate,2023-11-14T22:14:52+01:00*%
%TF.ProjectId,B780_CPU,42373830-5f43-4505-952e-6b696361645f,rev?*%
%TF.SameCoordinates,Original*%
%TF.FileFunction,Soldermask,Bot*%
%TF.FilePolarity,Negative*%
%FSLAX46Y46*%
G04 Gerber Fmt 4.6, Leading zero omitted, Abs format (unit mm)*
G04 Created by KiCad (PCBNEW (6.0.8)) date 2023-11-14 22:14:52*
%MOMM*%
%LPD*%
G01*
G04 APERTURE LIST*
%ADD10R,1.600000X1.600000*%
%ADD11O,1.600000X1.600000*%
%ADD12R,1.700000X1.700000*%
%ADD13O,1.700000X1.700000*%
G04 APERTURE END LIST*
D10*
%TO.C,J1*%
X69000000Y-39000000D03*
D11*
X69000000Y-41540000D03*
X69000000Y-44080000D03*
X69000000Y-46620000D03*
X69000000Y-49160000D03*
X69000000Y-51700000D03*
X69000000Y-54240000D03*
X69000000Y-56780000D03*
X69000000Y-59320000D03*
X69000000Y-61860000D03*
X69000000Y-64400000D03*
X69000000Y-66940000D03*
X69000000Y-69480000D03*
X69000000Y-72020000D03*
X69000000Y-74560000D03*
X69000000Y-77100000D03*
X69000000Y-79640000D03*
X69000000Y-82180000D03*
X69000000Y-84720000D03*
X69000000Y-87260000D03*
X84240000Y-87260000D03*
X84240000Y-84720000D03*
X84240000Y-82180000D03*
X84240000Y-79640000D03*
X84240000Y-77100000D03*
X84240000Y-74560000D03*
X84240000Y-72020000D03*
X84240000Y-69480000D03*
X84240000Y-66940000D03*
X84240000Y-64400000D03*
X84240000Y-61860000D03*
X84240000Y-59320000D03*
X84240000Y-56780000D03*
X84240000Y-54240000D03*
X84240000Y-51700000D03*
X84240000Y-49160000D03*
X84240000Y-46620000D03*
X84240000Y-44080000D03*
X84240000Y-41540000D03*
X84240000Y-39000000D03*
%TD*%
D12*
%TO.C,J3*%
X94025000Y-105500000D03*
D13*
X91485000Y-105500000D03*
X88945000Y-105500000D03*
%TD*%
D12*
%TO.C,J2*%
X94275000Y-101575000D03*
D13*
X91735000Y-101575000D03*
X94275000Y-99035000D03*
X91735000Y-99035000D03*
X94275000Y-96495000D03*
X91735000Y-96495000D03*
X94275000Y-93955000D03*
X91735000Y-93955000D03*
X94275000Y-91415000D03*
X91735000Y-91415000D03*
%TD*%
M02*
