%TF.GenerationSoftware,KiCad,Pcbnew,(6.0.8)*%
%TF.CreationDate,2023-11-14T22:14:52+01:00*%
%TF.ProjectId,B780_CPU,42373830-5f43-4505-952e-6b696361645f,rev?*%
%TF.SameCoordinates,Original*%
%TF.FileFunction,Paste,Top*%
%TF.FilePolarity,Positive*%
%FSLAX46Y46*%
G04 Gerber Fmt 4.6, Leading zero omitted, Abs format (unit mm)*
G04 Created by KiCad (PCBNEW (6.0.8)) date 2023-11-14 22:14:52*
%MOMM*%
%LPD*%
G01*
G04 APERTURE LIST*
G04 Aperture macros list*
%AMRoundRect*
0 Rectangle with rounded corners*
0 $1 Rounding radius*
0 $2 $3 $4 $5 $6 $7 $8 $9 X,Y pos of 4 corners*
0 Add a 4 corners polygon primitive as box body*
4,1,4,$2,$3,$4,$5,$6,$7,$8,$9,$2,$3,0*
0 Add four circle primitives for the rounded corners*
1,1,$1+$1,$2,$3*
1,1,$1+$1,$4,$5*
1,1,$1+$1,$6,$7*
1,1,$1+$1,$8,$9*
0 Add four rect primitives between the rounded corners*
20,1,$1+$1,$2,$3,$4,$5,0*
20,1,$1+$1,$4,$5,$6,$7,0*
20,1,$1+$1,$6,$7,$8,$9,0*
20,1,$1+$1,$8,$9,$2,$3,0*%
G04 Aperture macros list end*
%ADD10RoundRect,0.250000X-0.450000X0.350000X-0.450000X-0.350000X0.450000X-0.350000X0.450000X0.350000X0*%
%ADD11R,1.500000X0.550000*%
%ADD12R,0.550000X1.500000*%
%ADD13RoundRect,0.250000X-0.350000X-0.450000X0.350000X-0.450000X0.350000X0.450000X-0.350000X0.450000X0*%
G04 APERTURE END LIST*
D10*
%TO.C,C1*%
X68500000Y-96500000D03*
X68500000Y-98500000D03*
%TD*%
D11*
%TO.C,U1*%
X72300000Y-94300000D03*
X72300000Y-95100000D03*
X72300000Y-95900000D03*
X72300000Y-96700000D03*
X72300000Y-97500000D03*
X72300000Y-98300000D03*
X72300000Y-99100000D03*
X72300000Y-99900000D03*
X72300000Y-100700000D03*
X72300000Y-101500000D03*
X72300000Y-102300000D03*
D12*
X74000000Y-104000000D03*
X74800000Y-104000000D03*
X75600000Y-104000000D03*
X76400000Y-104000000D03*
X77200000Y-104000000D03*
X78000000Y-104000000D03*
X78800000Y-104000000D03*
X79600000Y-104000000D03*
X80400000Y-104000000D03*
X81200000Y-104000000D03*
X82000000Y-104000000D03*
D11*
X83700000Y-102300000D03*
X83700000Y-101500000D03*
X83700000Y-100700000D03*
X83700000Y-99900000D03*
X83700000Y-99100000D03*
X83700000Y-98300000D03*
X83700000Y-97500000D03*
X83700000Y-96700000D03*
X83700000Y-95900000D03*
X83700000Y-95100000D03*
X83700000Y-94300000D03*
D12*
X82000000Y-92600000D03*
X81200000Y-92600000D03*
X80400000Y-92600000D03*
X79600000Y-92600000D03*
X78800000Y-92600000D03*
X78000000Y-92600000D03*
X77200000Y-92600000D03*
X76400000Y-92600000D03*
X75600000Y-92600000D03*
X74800000Y-92600000D03*
X74000000Y-92600000D03*
%TD*%
D10*
%TO.C,C2*%
X88500000Y-99500000D03*
X88500000Y-101500000D03*
%TD*%
%TO.C,R1*%
X93000000Y-84500000D03*
X93000000Y-86500000D03*
%TD*%
D13*
%TO.C,R2*%
X73500000Y-41500000D03*
X75500000Y-41500000D03*
%TD*%
M02*
