%TF.GenerationSoftware,KiCad,Pcbnew,(6.0.8)*%
%TF.CreationDate,2022-10-05T16:47:09+02:00*%
%TF.ProjectId,MostekDumper,4d6f7374-656b-4447-956d-7065722e6b69,rev?*%
%TF.SameCoordinates,Original*%
%TF.FileFunction,Legend,Top*%
%TF.FilePolarity,Positive*%
%FSLAX46Y46*%
G04 Gerber Fmt 4.6, Leading zero omitted, Abs format (unit mm)*
G04 Created by KiCad (PCBNEW (6.0.8)) date 2022-10-05 16:47:09*
%MOMM*%
%LPD*%
G01*
G04 APERTURE LIST*
%ADD10C,0.150000*%
%ADD11C,0.120000*%
G04 APERTURE END LIST*
D10*
%TO.C,XA1*%
X91791904Y-48426380D02*
X92458571Y-49426380D01*
X92458571Y-48426380D02*
X91791904Y-49426380D01*
X92791904Y-49140666D02*
X93268095Y-49140666D01*
X92696666Y-49426380D02*
X93030000Y-48426380D01*
X93363333Y-49426380D01*
X94220476Y-49426380D02*
X93649047Y-49426380D01*
X93934761Y-49426380D02*
X93934761Y-48426380D01*
X93839523Y-48569238D01*
X93744285Y-48664476D01*
X93649047Y-48712095D01*
X152974000Y-71683142D02*
X153021619Y-71730761D01*
X152974000Y-71778380D01*
X152926380Y-71730761D01*
X152974000Y-71683142D01*
X152974000Y-71778380D01*
%TO.C,U5*%
X149042380Y-77141904D02*
X149851904Y-77141904D01*
X149947142Y-77094285D01*
X149994761Y-77046666D01*
X150042380Y-76951428D01*
X150042380Y-76760952D01*
X149994761Y-76665714D01*
X149947142Y-76618095D01*
X149851904Y-76570476D01*
X149042380Y-76570476D01*
X149042380Y-75618095D02*
X149042380Y-76094285D01*
X149518571Y-76141904D01*
X149470952Y-76094285D01*
X149423333Y-75999047D01*
X149423333Y-75760952D01*
X149470952Y-75665714D01*
X149518571Y-75618095D01*
X149613809Y-75570476D01*
X149851904Y-75570476D01*
X149947142Y-75618095D01*
X149994761Y-75665714D01*
X150042380Y-75760952D01*
X150042380Y-75999047D01*
X149994761Y-76094285D01*
X149947142Y-76141904D01*
X97122380Y-79118095D02*
X96122380Y-79118095D01*
X96836666Y-78784761D01*
X96122380Y-78451428D01*
X97122380Y-78451428D01*
X97122380Y-77975238D02*
X96122380Y-77975238D01*
X97122380Y-77403809D02*
X96550952Y-77832380D01*
X96122380Y-77403809D02*
X96693809Y-77975238D01*
X96122380Y-77070476D02*
X96122380Y-76451428D01*
X96503333Y-76784761D01*
X96503333Y-76641904D01*
X96550952Y-76546666D01*
X96598571Y-76499047D01*
X96693809Y-76451428D01*
X96931904Y-76451428D01*
X97027142Y-76499047D01*
X97074761Y-76546666D01*
X97122380Y-76641904D01*
X97122380Y-76927619D01*
X97074761Y-77022857D01*
X97027142Y-77070476D01*
X96550952Y-75880000D02*
X96503333Y-75975238D01*
X96455714Y-76022857D01*
X96360476Y-76070476D01*
X96312857Y-76070476D01*
X96217619Y-76022857D01*
X96170000Y-75975238D01*
X96122380Y-75880000D01*
X96122380Y-75689523D01*
X96170000Y-75594285D01*
X96217619Y-75546666D01*
X96312857Y-75499047D01*
X96360476Y-75499047D01*
X96455714Y-75546666D01*
X96503333Y-75594285D01*
X96550952Y-75689523D01*
X96550952Y-75880000D01*
X96598571Y-75975238D01*
X96646190Y-76022857D01*
X96741428Y-76070476D01*
X96931904Y-76070476D01*
X97027142Y-76022857D01*
X97074761Y-75975238D01*
X97122380Y-75880000D01*
X97122380Y-75689523D01*
X97074761Y-75594285D01*
X97027142Y-75546666D01*
X96931904Y-75499047D01*
X96741428Y-75499047D01*
X96646190Y-75546666D01*
X96598571Y-75594285D01*
X96550952Y-75689523D01*
X96122380Y-75165714D02*
X96122380Y-74499047D01*
X97122380Y-74927619D01*
X96122380Y-73641904D02*
X96122380Y-74118095D01*
X96598571Y-74165714D01*
X96550952Y-74118095D01*
X96503333Y-74022857D01*
X96503333Y-73784761D01*
X96550952Y-73689523D01*
X96598571Y-73641904D01*
X96693809Y-73594285D01*
X96931904Y-73594285D01*
X97027142Y-73641904D01*
X97074761Y-73689523D01*
X97122380Y-73784761D01*
X97122380Y-74022857D01*
X97074761Y-74118095D01*
X97027142Y-74165714D01*
%TO.C,U4*%
X116452380Y-63761904D02*
X117261904Y-63761904D01*
X117357142Y-63714285D01*
X117404761Y-63666666D01*
X117452380Y-63571428D01*
X117452380Y-63380952D01*
X117404761Y-63285714D01*
X117357142Y-63238095D01*
X117261904Y-63190476D01*
X116452380Y-63190476D01*
X116785714Y-62285714D02*
X117452380Y-62285714D01*
X116404761Y-62523809D02*
X117119047Y-62761904D01*
X117119047Y-62142857D01*
X119039523Y-60662380D02*
X118563333Y-60662380D01*
X118563333Y-59662380D01*
X119372857Y-60662380D02*
X119372857Y-59662380D01*
X119706190Y-60376666D01*
X120039523Y-59662380D01*
X120039523Y-60662380D01*
X120420476Y-59662380D02*
X121039523Y-59662380D01*
X120706190Y-60043333D01*
X120849047Y-60043333D01*
X120944285Y-60090952D01*
X120991904Y-60138571D01*
X121039523Y-60233809D01*
X121039523Y-60471904D01*
X120991904Y-60567142D01*
X120944285Y-60614761D01*
X120849047Y-60662380D01*
X120563333Y-60662380D01*
X120468095Y-60614761D01*
X120420476Y-60567142D01*
X121991904Y-60662380D02*
X121420476Y-60662380D01*
X121706190Y-60662380D02*
X121706190Y-59662380D01*
X121610952Y-59805238D01*
X121515714Y-59900476D01*
X121420476Y-59948095D01*
X122325238Y-59662380D02*
X122991904Y-59662380D01*
X122563333Y-60662380D01*
%TO.C,U3*%
X116452380Y-57761904D02*
X117261904Y-57761904D01*
X117357142Y-57714285D01*
X117404761Y-57666666D01*
X117452380Y-57571428D01*
X117452380Y-57380952D01*
X117404761Y-57285714D01*
X117357142Y-57238095D01*
X117261904Y-57190476D01*
X116452380Y-57190476D01*
X116452380Y-56809523D02*
X116452380Y-56190476D01*
X116833333Y-56523809D01*
X116833333Y-56380952D01*
X116880952Y-56285714D01*
X116928571Y-56238095D01*
X117023809Y-56190476D01*
X117261904Y-56190476D01*
X117357142Y-56238095D01*
X117404761Y-56285714D01*
X117452380Y-56380952D01*
X117452380Y-56666666D01*
X117404761Y-56761904D01*
X117357142Y-56809523D01*
X119039523Y-54662380D02*
X118563333Y-54662380D01*
X118563333Y-53662380D01*
X119372857Y-54662380D02*
X119372857Y-53662380D01*
X119706190Y-54376666D01*
X120039523Y-53662380D01*
X120039523Y-54662380D01*
X120420476Y-53662380D02*
X121039523Y-53662380D01*
X120706190Y-54043333D01*
X120849047Y-54043333D01*
X120944285Y-54090952D01*
X120991904Y-54138571D01*
X121039523Y-54233809D01*
X121039523Y-54471904D01*
X120991904Y-54567142D01*
X120944285Y-54614761D01*
X120849047Y-54662380D01*
X120563333Y-54662380D01*
X120468095Y-54614761D01*
X120420476Y-54567142D01*
X121991904Y-54662380D02*
X121420476Y-54662380D01*
X121706190Y-54662380D02*
X121706190Y-53662380D01*
X121610952Y-53805238D01*
X121515714Y-53900476D01*
X121420476Y-53948095D01*
X122325238Y-53662380D02*
X122991904Y-53662380D01*
X122563333Y-54662380D01*
%TO.C,U2*%
X97832380Y-60321904D02*
X98641904Y-60321904D01*
X98737142Y-60274285D01*
X98784761Y-60226666D01*
X98832380Y-60131428D01*
X98832380Y-59940952D01*
X98784761Y-59845714D01*
X98737142Y-59798095D01*
X98641904Y-59750476D01*
X97832380Y-59750476D01*
X97927619Y-59321904D02*
X97880000Y-59274285D01*
X97832380Y-59179047D01*
X97832380Y-58940952D01*
X97880000Y-58845714D01*
X97927619Y-58798095D01*
X98022857Y-58750476D01*
X98118095Y-58750476D01*
X98260952Y-58798095D01*
X98832380Y-59369523D01*
X98832380Y-58750476D01*
X113072380Y-63774285D02*
X113072380Y-63202857D01*
X114072380Y-63488571D02*
X113072380Y-63488571D01*
X113548571Y-62536190D02*
X113596190Y-62393333D01*
X113643809Y-62345714D01*
X113739047Y-62298095D01*
X113881904Y-62298095D01*
X113977142Y-62345714D01*
X114024761Y-62393333D01*
X114072380Y-62488571D01*
X114072380Y-62869523D01*
X113072380Y-62869523D01*
X113072380Y-62536190D01*
X113120000Y-62440952D01*
X113167619Y-62393333D01*
X113262857Y-62345714D01*
X113358095Y-62345714D01*
X113453333Y-62393333D01*
X113500952Y-62440952D01*
X113548571Y-62536190D01*
X113548571Y-62869523D01*
X113786666Y-61917142D02*
X113786666Y-61440952D01*
X114072380Y-62012380D02*
X113072380Y-61679047D01*
X114072380Y-61345714D01*
X114072380Y-60488571D02*
X114072380Y-61060000D01*
X114072380Y-60774285D02*
X113072380Y-60774285D01*
X113215238Y-60869523D01*
X113310476Y-60964761D01*
X113358095Y-61060000D01*
X113691428Y-60060000D02*
X113691428Y-59298095D01*
X113072380Y-58631428D02*
X113072380Y-58536190D01*
X113120000Y-58440952D01*
X113167619Y-58393333D01*
X113262857Y-58345714D01*
X113453333Y-58298095D01*
X113691428Y-58298095D01*
X113881904Y-58345714D01*
X113977142Y-58393333D01*
X114024761Y-58440952D01*
X114072380Y-58536190D01*
X114072380Y-58631428D01*
X114024761Y-58726666D01*
X113977142Y-58774285D01*
X113881904Y-58821904D01*
X113691428Y-58869523D01*
X113453333Y-58869523D01*
X113262857Y-58821904D01*
X113167619Y-58774285D01*
X113120000Y-58726666D01*
X113072380Y-58631428D01*
X113072380Y-57393333D02*
X113072380Y-57869523D01*
X113548571Y-57917142D01*
X113500952Y-57869523D01*
X113453333Y-57774285D01*
X113453333Y-57536190D01*
X113500952Y-57440952D01*
X113548571Y-57393333D01*
X113643809Y-57345714D01*
X113881904Y-57345714D01*
X113977142Y-57393333D01*
X114024761Y-57440952D01*
X114072380Y-57536190D01*
X114072380Y-57774285D01*
X114024761Y-57869523D01*
X113977142Y-57917142D01*
X114072380Y-56393333D02*
X114072380Y-56964761D01*
X114072380Y-56679047D02*
X113072380Y-56679047D01*
X113215238Y-56774285D01*
X113310476Y-56869523D01*
X113358095Y-56964761D01*
X114072380Y-55917142D02*
X114072380Y-55726666D01*
X114024761Y-55631428D01*
X113977142Y-55583809D01*
X113834285Y-55488571D01*
X113643809Y-55440952D01*
X113262857Y-55440952D01*
X113167619Y-55488571D01*
X113120000Y-55536190D01*
X113072380Y-55631428D01*
X113072380Y-55821904D01*
X113120000Y-55917142D01*
X113167619Y-55964761D01*
X113262857Y-56012380D01*
X113500952Y-56012380D01*
X113596190Y-55964761D01*
X113643809Y-55917142D01*
X113691428Y-55821904D01*
X113691428Y-55631428D01*
X113643809Y-55536190D01*
X113596190Y-55488571D01*
X113500952Y-55440952D01*
%TO.C,U1*%
X171248095Y-75497380D02*
X171248095Y-76306904D01*
X171295714Y-76402142D01*
X171343333Y-76449761D01*
X171438571Y-76497380D01*
X171629047Y-76497380D01*
X171724285Y-76449761D01*
X171771904Y-76402142D01*
X171819523Y-76306904D01*
X171819523Y-75497380D01*
X172819523Y-76497380D02*
X172248095Y-76497380D01*
X172533809Y-76497380D02*
X172533809Y-75497380D01*
X172438571Y-75640238D01*
X172343333Y-75735476D01*
X172248095Y-75783095D01*
X170771904Y-95730714D02*
X170771904Y-96397380D01*
X170533809Y-95349761D02*
X170295714Y-96064047D01*
X170914761Y-96064047D01*
X171486190Y-95397380D02*
X171581428Y-95397380D01*
X171676666Y-95445000D01*
X171724285Y-95492619D01*
X171771904Y-95587857D01*
X171819523Y-95778333D01*
X171819523Y-96016428D01*
X171771904Y-96206904D01*
X171724285Y-96302142D01*
X171676666Y-96349761D01*
X171581428Y-96397380D01*
X171486190Y-96397380D01*
X171390952Y-96349761D01*
X171343333Y-96302142D01*
X171295714Y-96206904D01*
X171248095Y-96016428D01*
X171248095Y-95778333D01*
X171295714Y-95587857D01*
X171343333Y-95492619D01*
X171390952Y-95445000D01*
X171486190Y-95397380D01*
X172676666Y-95397380D02*
X172486190Y-95397380D01*
X172390952Y-95445000D01*
X172343333Y-95492619D01*
X172248095Y-95635476D01*
X172200476Y-95825952D01*
X172200476Y-96206904D01*
X172248095Y-96302142D01*
X172295714Y-96349761D01*
X172390952Y-96397380D01*
X172581428Y-96397380D01*
X172676666Y-96349761D01*
X172724285Y-96302142D01*
X172771904Y-96206904D01*
X172771904Y-95968809D01*
X172724285Y-95873571D01*
X172676666Y-95825952D01*
X172581428Y-95778333D01*
X172390952Y-95778333D01*
X172295714Y-95825952D01*
X172248095Y-95873571D01*
X172200476Y-95968809D01*
X173629047Y-95397380D02*
X173438571Y-95397380D01*
X173343333Y-95445000D01*
X173295714Y-95492619D01*
X173200476Y-95635476D01*
X173152857Y-95825952D01*
X173152857Y-96206904D01*
X173200476Y-96302142D01*
X173248095Y-96349761D01*
X173343333Y-96397380D01*
X173533809Y-96397380D01*
X173629047Y-96349761D01*
X173676666Y-96302142D01*
X173724285Y-96206904D01*
X173724285Y-95968809D01*
X173676666Y-95873571D01*
X173629047Y-95825952D01*
X173533809Y-95778333D01*
X173343333Y-95778333D01*
X173248095Y-95825952D01*
X173200476Y-95873571D01*
X173152857Y-95968809D01*
%TO.C,RV2*%
X156404761Y-64452380D02*
X156071428Y-63976190D01*
X155833333Y-64452380D02*
X155833333Y-63452380D01*
X156214285Y-63452380D01*
X156309523Y-63500000D01*
X156357142Y-63547619D01*
X156404761Y-63642857D01*
X156404761Y-63785714D01*
X156357142Y-63880952D01*
X156309523Y-63928571D01*
X156214285Y-63976190D01*
X155833333Y-63976190D01*
X156690476Y-63452380D02*
X157023809Y-64452380D01*
X157357142Y-63452380D01*
X157642857Y-63547619D02*
X157690476Y-63500000D01*
X157785714Y-63452380D01*
X158023809Y-63452380D01*
X158119047Y-63500000D01*
X158166666Y-63547619D01*
X158214285Y-63642857D01*
X158214285Y-63738095D01*
X158166666Y-63880952D01*
X157595238Y-64452380D01*
X158214285Y-64452380D01*
X159214285Y-63592619D02*
X159261904Y-63545000D01*
X159357142Y-63497380D01*
X159595238Y-63497380D01*
X159690476Y-63545000D01*
X159738095Y-63592619D01*
X159785714Y-63687857D01*
X159785714Y-63783095D01*
X159738095Y-63925952D01*
X159166666Y-64497380D01*
X159785714Y-64497380D01*
X160214285Y-64497380D02*
X160214285Y-63497380D01*
X160785714Y-64497380D02*
X160357142Y-63925952D01*
X160785714Y-63497380D02*
X160214285Y-64068809D01*
%TO.C,RV1*%
X174404761Y-64452380D02*
X174071428Y-63976190D01*
X173833333Y-64452380D02*
X173833333Y-63452380D01*
X174214285Y-63452380D01*
X174309523Y-63500000D01*
X174357142Y-63547619D01*
X174404761Y-63642857D01*
X174404761Y-63785714D01*
X174357142Y-63880952D01*
X174309523Y-63928571D01*
X174214285Y-63976190D01*
X173833333Y-63976190D01*
X174690476Y-63452380D02*
X175023809Y-64452380D01*
X175357142Y-63452380D01*
X176214285Y-64452380D02*
X175642857Y-64452380D01*
X175928571Y-64452380D02*
X175928571Y-63452380D01*
X175833333Y-63595238D01*
X175738095Y-63690476D01*
X175642857Y-63738095D01*
X177214285Y-63592619D02*
X177261904Y-63545000D01*
X177357142Y-63497380D01*
X177595238Y-63497380D01*
X177690476Y-63545000D01*
X177738095Y-63592619D01*
X177785714Y-63687857D01*
X177785714Y-63783095D01*
X177738095Y-63925952D01*
X177166666Y-64497380D01*
X177785714Y-64497380D01*
X178214285Y-64497380D02*
X178214285Y-63497380D01*
X178785714Y-64497380D02*
X178357142Y-63925952D01*
X178785714Y-63497380D02*
X178214285Y-64068809D01*
%TO.C,R2*%
X161082380Y-72086666D02*
X160606190Y-72420000D01*
X161082380Y-72658095D02*
X160082380Y-72658095D01*
X160082380Y-72277142D01*
X160130000Y-72181904D01*
X160177619Y-72134285D01*
X160272857Y-72086666D01*
X160415714Y-72086666D01*
X160510952Y-72134285D01*
X160558571Y-72181904D01*
X160606190Y-72277142D01*
X160606190Y-72658095D01*
X160177619Y-71705714D02*
X160130000Y-71658095D01*
X160082380Y-71562857D01*
X160082380Y-71324761D01*
X160130000Y-71229523D01*
X160177619Y-71181904D01*
X160272857Y-71134285D01*
X160368095Y-71134285D01*
X160510952Y-71181904D01*
X161082380Y-71753333D01*
X161082380Y-71134285D01*
X164917619Y-73158095D02*
X164870000Y-73110476D01*
X164822380Y-73015238D01*
X164822380Y-72777142D01*
X164870000Y-72681904D01*
X164917619Y-72634285D01*
X165012857Y-72586666D01*
X165108095Y-72586666D01*
X165250952Y-72634285D01*
X165822380Y-73205714D01*
X165822380Y-72586666D01*
X164917619Y-72205714D02*
X164870000Y-72158095D01*
X164822380Y-72062857D01*
X164822380Y-71824761D01*
X164870000Y-71729523D01*
X164917619Y-71681904D01*
X165012857Y-71634285D01*
X165108095Y-71634285D01*
X165250952Y-71681904D01*
X165822380Y-72253333D01*
X165822380Y-71634285D01*
X164822380Y-71015238D02*
X164822380Y-70920000D01*
X164870000Y-70824761D01*
X164917619Y-70777142D01*
X165012857Y-70729523D01*
X165203333Y-70681904D01*
X165441428Y-70681904D01*
X165631904Y-70729523D01*
X165727142Y-70777142D01*
X165774761Y-70824761D01*
X165822380Y-70920000D01*
X165822380Y-71015238D01*
X165774761Y-71110476D01*
X165727142Y-71158095D01*
X165631904Y-71205714D01*
X165441428Y-71253333D01*
X165203333Y-71253333D01*
X165012857Y-71205714D01*
X164917619Y-71158095D01*
X164870000Y-71110476D01*
X164822380Y-71015238D01*
%TO.C,R1*%
X182822380Y-72246666D02*
X182346190Y-72580000D01*
X182822380Y-72818095D02*
X181822380Y-72818095D01*
X181822380Y-72437142D01*
X181870000Y-72341904D01*
X181917619Y-72294285D01*
X182012857Y-72246666D01*
X182155714Y-72246666D01*
X182250952Y-72294285D01*
X182298571Y-72341904D01*
X182346190Y-72437142D01*
X182346190Y-72818095D01*
X182822380Y-71294285D02*
X182822380Y-71865714D01*
X182822380Y-71580000D02*
X181822380Y-71580000D01*
X181965238Y-71675238D01*
X182060476Y-71770476D01*
X182108095Y-71865714D01*
X177177619Y-73318095D02*
X177130000Y-73270476D01*
X177082380Y-73175238D01*
X177082380Y-72937142D01*
X177130000Y-72841904D01*
X177177619Y-72794285D01*
X177272857Y-72746666D01*
X177368095Y-72746666D01*
X177510952Y-72794285D01*
X178082380Y-73365714D01*
X178082380Y-72746666D01*
X177177619Y-72365714D02*
X177130000Y-72318095D01*
X177082380Y-72222857D01*
X177082380Y-71984761D01*
X177130000Y-71889523D01*
X177177619Y-71841904D01*
X177272857Y-71794285D01*
X177368095Y-71794285D01*
X177510952Y-71841904D01*
X178082380Y-72413333D01*
X178082380Y-71794285D01*
X177082380Y-71175238D02*
X177082380Y-71080000D01*
X177130000Y-70984761D01*
X177177619Y-70937142D01*
X177272857Y-70889523D01*
X177463333Y-70841904D01*
X177701428Y-70841904D01*
X177891904Y-70889523D01*
X177987142Y-70937142D01*
X178034761Y-70984761D01*
X178082380Y-71080000D01*
X178082380Y-71175238D01*
X178034761Y-71270476D01*
X177987142Y-71318095D01*
X177891904Y-71365714D01*
X177701428Y-71413333D01*
X177463333Y-71413333D01*
X177272857Y-71365714D01*
X177177619Y-71318095D01*
X177130000Y-71270476D01*
X177082380Y-71175238D01*
%TO.C,C2*%
X153557142Y-86666666D02*
X153604761Y-86714285D01*
X153652380Y-86857142D01*
X153652380Y-86952380D01*
X153604761Y-87095238D01*
X153509523Y-87190476D01*
X153414285Y-87238095D01*
X153223809Y-87285714D01*
X153080952Y-87285714D01*
X152890476Y-87238095D01*
X152795238Y-87190476D01*
X152700000Y-87095238D01*
X152652380Y-86952380D01*
X152652380Y-86857142D01*
X152700000Y-86714285D01*
X152747619Y-86666666D01*
X152747619Y-86285714D02*
X152700000Y-86238095D01*
X152652380Y-86142857D01*
X152652380Y-85904761D01*
X152700000Y-85809523D01*
X152747619Y-85761904D01*
X152842857Y-85714285D01*
X152938095Y-85714285D01*
X153080952Y-85761904D01*
X153652380Y-86333333D01*
X153652380Y-85714285D01*
X149252380Y-89119047D02*
X149252380Y-89690476D01*
X149252380Y-89404761D02*
X148252380Y-89404761D01*
X148395238Y-89500000D01*
X148490476Y-89595238D01*
X148538095Y-89690476D01*
X148252380Y-88500000D02*
X148252380Y-88404761D01*
X148300000Y-88309523D01*
X148347619Y-88261904D01*
X148442857Y-88214285D01*
X148633333Y-88166666D01*
X148871428Y-88166666D01*
X149061904Y-88214285D01*
X149157142Y-88261904D01*
X149204761Y-88309523D01*
X149252380Y-88404761D01*
X149252380Y-88500000D01*
X149204761Y-88595238D01*
X149157142Y-88642857D01*
X149061904Y-88690476D01*
X148871428Y-88738095D01*
X148633333Y-88738095D01*
X148442857Y-88690476D01*
X148347619Y-88642857D01*
X148300000Y-88595238D01*
X148252380Y-88500000D01*
X148252380Y-87547619D02*
X148252380Y-87452380D01*
X148300000Y-87357142D01*
X148347619Y-87309523D01*
X148442857Y-87261904D01*
X148633333Y-87214285D01*
X148871428Y-87214285D01*
X149061904Y-87261904D01*
X149157142Y-87309523D01*
X149204761Y-87357142D01*
X149252380Y-87452380D01*
X149252380Y-87547619D01*
X149204761Y-87642857D01*
X149157142Y-87690476D01*
X149061904Y-87738095D01*
X148871428Y-87785714D01*
X148633333Y-87785714D01*
X148442857Y-87738095D01*
X148347619Y-87690476D01*
X148300000Y-87642857D01*
X148252380Y-87547619D01*
X148585714Y-86785714D02*
X149252380Y-86785714D01*
X148680952Y-86785714D02*
X148633333Y-86738095D01*
X148585714Y-86642857D01*
X148585714Y-86500000D01*
X148633333Y-86404761D01*
X148728571Y-86357142D01*
X149252380Y-86357142D01*
%TO.C,C1*%
X143583333Y-64307142D02*
X143535714Y-64354761D01*
X143392857Y-64402380D01*
X143297619Y-64402380D01*
X143154761Y-64354761D01*
X143059523Y-64259523D01*
X143011904Y-64164285D01*
X142964285Y-63973809D01*
X142964285Y-63830952D01*
X143011904Y-63640476D01*
X143059523Y-63545238D01*
X143154761Y-63450000D01*
X143297619Y-63402380D01*
X143392857Y-63402380D01*
X143535714Y-63450000D01*
X143583333Y-63497619D01*
X144535714Y-64402380D02*
X143964285Y-64402380D01*
X144250000Y-64402380D02*
X144250000Y-63402380D01*
X144154761Y-63545238D01*
X144059523Y-63640476D01*
X143964285Y-63688095D01*
X147357142Y-66452380D02*
X146785714Y-66452380D01*
X147071428Y-66452380D02*
X147071428Y-65452380D01*
X146976190Y-65595238D01*
X146880952Y-65690476D01*
X146785714Y-65738095D01*
X147976190Y-65452380D02*
X148071428Y-65452380D01*
X148166666Y-65500000D01*
X148214285Y-65547619D01*
X148261904Y-65642857D01*
X148309523Y-65833333D01*
X148309523Y-66071428D01*
X148261904Y-66261904D01*
X148214285Y-66357142D01*
X148166666Y-66404761D01*
X148071428Y-66452380D01*
X147976190Y-66452380D01*
X147880952Y-66404761D01*
X147833333Y-66357142D01*
X147785714Y-66261904D01*
X147738095Y-66071428D01*
X147738095Y-65833333D01*
X147785714Y-65642857D01*
X147833333Y-65547619D01*
X147880952Y-65500000D01*
X147976190Y-65452380D01*
X148738095Y-65785714D02*
X148738095Y-66452380D01*
X148738095Y-65880952D02*
X148785714Y-65833333D01*
X148880952Y-65785714D01*
X149023809Y-65785714D01*
X149119047Y-65833333D01*
X149166666Y-65928571D01*
X149166666Y-66452380D01*
%TO.C,XA1*%
X90490000Y-49990000D02*
X90490000Y-103330000D01*
X189550000Y-62690000D02*
X189550000Y-51514000D01*
X192090000Y-65230000D02*
X189550000Y-62690000D01*
X192090000Y-99520000D02*
X192090000Y-65230000D01*
X189550000Y-102060000D02*
X192090000Y-99520000D01*
X189550000Y-103330000D02*
X189550000Y-102060000D01*
X188026000Y-49990000D02*
X189550000Y-51514000D01*
X90490000Y-103330000D02*
X189550000Y-103330000D01*
X90490000Y-49990000D02*
X188026000Y-49990000D01*
D11*
%TO.C,U5*%
X148590000Y-82840000D02*
X148590000Y-77380000D01*
X148650000Y-67430000D02*
X97610000Y-67430000D01*
X148590000Y-69920000D02*
X97670000Y-69920000D01*
X97610000Y-85330000D02*
X148650000Y-85330000D01*
X97670000Y-82840000D02*
X148590000Y-82840000D01*
X97670000Y-69920000D02*
X97670000Y-82840000D01*
X97610000Y-67430000D02*
X97610000Y-85330000D01*
X148650000Y-85330000D02*
X148650000Y-67430000D01*
X148590000Y-75380000D02*
X148590000Y-69920000D01*
X148590000Y-75380000D02*
G75*
G03*
X148590000Y-77380000I0J-1000000D01*
G01*
%TO.C,U4*%
X122530000Y-61150000D02*
X118930000Y-61150000D01*
X118891522Y-61161522D02*
G75*
G03*
X120730000Y-65600000I1838478J-1838478D01*
G01*
X120730000Y-65600001D02*
G75*
G03*
X122568478Y-61161522I0J2600001D01*
G01*
%TO.C,U3*%
X122530000Y-55150000D02*
X118930000Y-55150000D01*
X118891522Y-55161522D02*
G75*
G03*
X120730000Y-59600000I1838478J-1838478D01*
G01*
X120730000Y-59600001D02*
G75*
G03*
X122568478Y-55161522I0J2600001D01*
G01*
%TO.C,U2*%
X111840000Y-63000000D02*
X111840000Y-57000000D01*
X100160000Y-57000000D02*
X111840000Y-57000000D01*
X100160000Y-63000000D02*
X100160000Y-57000000D01*
X100160000Y-63000000D02*
X111840000Y-63000000D01*
%TO.C,U1*%
X169360000Y-77045000D02*
X169360000Y-94945000D01*
X174660000Y-77045000D02*
X173010000Y-77045000D01*
X169360000Y-94945000D02*
X174660000Y-94945000D01*
X174660000Y-94945000D02*
X174660000Y-77045000D01*
X171010000Y-77045000D02*
X169360000Y-77045000D01*
X171010000Y-77045000D02*
G75*
G03*
X173010000Y-77045000I1000000J0D01*
G01*
%TO.C,RV2*%
X163930000Y-58985000D02*
G75*
G03*
X163930000Y-58985000I-3930000J0D01*
G01*
%TO.C,RV1*%
X181930000Y-58985000D02*
G75*
G03*
X181930000Y-58985000I-3930000J0D01*
G01*
%TO.C,R2*%
X161630000Y-68650000D02*
X161630000Y-75190000D01*
X164370000Y-75190000D02*
X164370000Y-68650000D01*
X164370000Y-68650000D02*
X161630000Y-68650000D01*
X161630000Y-75190000D02*
X164370000Y-75190000D01*
X163000000Y-75960000D02*
X163000000Y-75190000D01*
X163000000Y-67880000D02*
X163000000Y-68650000D01*
%TO.C,R1*%
X180000000Y-76120000D02*
X180000000Y-75350000D01*
X180000000Y-68040000D02*
X180000000Y-68810000D01*
X181370000Y-68810000D02*
X178630000Y-68810000D01*
X178630000Y-75350000D02*
X181370000Y-75350000D01*
X178630000Y-68810000D02*
X178630000Y-75350000D01*
X181370000Y-75350000D02*
X181370000Y-68810000D01*
%TO.C,C2*%
X149945000Y-84230000D02*
X149930000Y-84230000D01*
X152070000Y-88770000D02*
X152055000Y-88770000D01*
X152070000Y-84230000D02*
X152055000Y-84230000D01*
X149945000Y-88770000D02*
X149930000Y-88770000D01*
X152070000Y-84230000D02*
X152070000Y-88770000D01*
X149930000Y-84230000D02*
X149930000Y-88770000D01*
%TO.C,C1*%
X143121000Y-66920000D02*
X144379000Y-66920000D01*
X143121000Y-65080000D02*
X144379000Y-65080000D01*
%TD*%
M02*
