M48
; DRILL file {KiCad (6.0.8)} date Wed Oct  5 16:47:18 2022
; FORMAT={-:-/ absolute / metric / decimal}
; #@! TF.CreationDate,2022-10-05T16:47:18+02:00
; #@! TF.GenerationSoftware,Kicad,Pcbnew,(6.0.8)
; #@! TF.FileFunction,Plated,1,2,PTH
FMAT,2
METRIC
; #@! TA.AperFunction,Plated,PTH,ViaDrill
T1C0.400
; #@! TA.AperFunction,Plated,PTH,ComponentDrill
T2C0.500
; #@! TA.AperFunction,Plated,PTH,ComponentDrill
T3C0.700
; #@! TA.AperFunction,Plated,PTH,ComponentDrill
T4C0.750
; #@! TA.AperFunction,Plated,PTH,ComponentDrill
T5C0.800
; #@! TA.AperFunction,Plated,PTH,ComponentDrill
T6C1.016
%
G90
G05
T1
X110.0Y-87.0
X122.0Y-87.0
X127.0Y-94.0
X132.0Y-94.0
X134.0Y-87.0
X163.0Y-87.0
X164.0Y-82.0
X165.0Y-65.0
X165.0Y-89.0
X168.0Y-68.0
X169.0Y-58.0
X171.0Y-81.0
X172.0Y-88.0
X173.0Y-75.0
X173.0Y-91.0
X173.0Y-93.0
X175.0Y-66.0
X180.0Y-88.0
X180.0Y-91.0
X180.0Y-93.0
T3
X157.46Y-58.985
X160.0Y-56.445
X160.0Y-61.525
X175.46Y-58.985
X178.0Y-56.445
X178.0Y-61.525
T4
X119.46Y-57.0
X119.46Y-63.0
X120.73Y-57.0
X120.73Y-63.0
X122.0Y-57.0
X122.0Y-63.0
T5
X99.0Y-68.76
X99.0Y-84.0
X101.54Y-68.76
X101.54Y-84.0
X104.08Y-68.76
X104.08Y-84.0
X106.62Y-68.76
X106.62Y-84.0
X109.16Y-68.76
X109.16Y-84.0
X111.7Y-68.76
X111.7Y-84.0
X114.24Y-68.76
X114.24Y-84.0
X116.78Y-68.76
X116.78Y-84.0
X119.32Y-68.76
X119.32Y-84.0
X121.86Y-68.76
X121.86Y-84.0
X124.4Y-68.76
X124.4Y-84.0
X126.94Y-68.76
X126.94Y-84.0
X129.48Y-68.76
X129.48Y-84.0
X132.02Y-68.76
X132.02Y-84.0
X134.56Y-68.76
X134.56Y-84.0
X137.1Y-68.76
X137.1Y-84.0
X139.64Y-68.76
X139.64Y-84.0
X142.18Y-68.76
X142.18Y-84.0
X142.5Y-66.0
X144.72Y-68.76
X144.72Y-84.0
X145.0Y-66.0
X147.26Y-68.76
X147.26Y-84.0
X151.0Y-84.0
X151.0Y-89.0
X163.0Y-66.84
X163.0Y-77.0
X168.2Y-78.375
X168.2Y-80.915
X168.2Y-83.455
X168.2Y-85.995
X168.2Y-88.535
X168.2Y-91.075
X168.2Y-93.615
X175.82Y-78.375
X175.82Y-80.915
X175.82Y-83.455
X175.82Y-85.995
X175.82Y-88.535
X175.82Y-91.075
X175.82Y-93.615
X180.0Y-67.0
X180.0Y-77.16
T6
X109.286Y-52.53
X111.826Y-52.53
X114.366Y-52.53
X116.906Y-52.53
X118.43Y-100.79
X119.446Y-52.53
X120.97Y-100.79
X121.986Y-52.53
X123.51Y-100.79
X124.526Y-52.53
X126.05Y-100.79
X127.066Y-52.53
X128.59Y-100.79
X129.606Y-52.53
X131.13Y-100.79
X132.146Y-52.53
X133.67Y-100.79
X136.21Y-52.53
X136.21Y-100.79
X138.75Y-52.53
X141.29Y-52.53
X141.29Y-100.79
X143.83Y-52.53
X143.83Y-100.79
X146.37Y-52.53
X146.37Y-100.79
X148.91Y-52.53
X148.91Y-100.79
X151.45Y-52.53
X151.45Y-100.79
X153.99Y-52.53
X153.99Y-100.79
X154.117Y-72.85
X154.117Y-75.39
X154.117Y-77.93
X156.53Y-100.79
X156.657Y-72.85
X156.657Y-75.39
X156.657Y-77.93
X159.07Y-52.53
X159.07Y-100.79
X161.61Y-52.53
X164.15Y-52.53
X164.15Y-100.79
X166.69Y-52.53
X166.69Y-100.79
X169.23Y-52.53
X169.23Y-100.79
X171.77Y-52.53
X171.77Y-100.79
X174.31Y-52.53
X174.31Y-100.79
X176.85Y-52.53
X176.85Y-100.79
X179.39Y-100.79
X181.93Y-100.79
X184.47Y-52.53
X184.47Y-55.07
X184.47Y-57.61
X184.47Y-60.15
X184.47Y-62.69
X184.47Y-65.23
X184.47Y-67.77
X184.47Y-70.31
X184.47Y-72.85
X184.47Y-75.39
X184.47Y-77.93
X184.47Y-80.47
X184.47Y-83.01
X184.47Y-85.55
X184.47Y-88.09
X184.47Y-90.63
X184.47Y-93.17
X184.47Y-95.71
X187.01Y-52.53
X187.01Y-55.07
X187.01Y-57.61
X187.01Y-60.15
X187.01Y-62.69
X187.01Y-65.23
X187.01Y-67.77
X187.01Y-70.31
X187.01Y-72.85
X187.01Y-75.39
X187.01Y-77.93
X187.01Y-80.47
X187.01Y-83.01
X187.01Y-85.55
X187.01Y-88.09
X187.01Y-90.63
X187.01Y-93.17
X187.01Y-95.71
T2
G00X101.94Y-62.1
M15
G01X102.44Y-62.1
M16
G05
G00X104.48Y-62.1
M15
G01X104.98Y-62.1
M16
G05
G00X107.02Y-62.1
M15
G01X107.52Y-62.1
M16
G05
G00X109.56Y-62.1
M15
G01X110.06Y-62.1
M16
G05
T0
M30
