%TF.GenerationSoftware,KiCad,Pcbnew,(6.0.8)*%
%TF.CreationDate,2022-10-05T16:47:09+02:00*%
%TF.ProjectId,MostekDumper,4d6f7374-656b-4447-956d-7065722e6b69,rev?*%
%TF.SameCoordinates,Original*%
%TF.FileFunction,Soldermask,Bot*%
%TF.FilePolarity,Negative*%
%FSLAX46Y46*%
G04 Gerber Fmt 4.6, Leading zero omitted, Abs format (unit mm)*
G04 Created by KiCad (PCBNEW (6.0.8)) date 2022-10-05 16:47:09*
%MOMM*%
%LPD*%
G01*
G04 APERTURE LIST*
%ADD10O,1.727200X1.727200*%
%ADD11C,3.200000*%
%ADD12R,1.600000X1.600000*%
%ADD13O,1.600000X1.600000*%
%ADD14R,1.050000X1.500000*%
%ADD15O,1.050000X1.500000*%
%ADD16O,1.800000X1.000000*%
%ADD17R,1.800000X1.000000*%
%ADD18C,1.260000*%
%ADD19C,1.600000*%
G04 APERTURE END LIST*
D10*
%TO.C,XA1*%
X154117000Y-77930000D03*
X156657000Y-77930000D03*
X156657000Y-75390000D03*
X154117000Y-75390000D03*
X156657000Y-72850000D03*
X141290000Y-100790000D03*
X136210000Y-100790000D03*
X133670000Y-100790000D03*
X131130000Y-100790000D03*
X128590000Y-100790000D03*
X126050000Y-100790000D03*
X123510000Y-100790000D03*
X120970000Y-100790000D03*
X176850000Y-52530000D03*
X174310000Y-52530000D03*
X171770000Y-52530000D03*
X169230000Y-52530000D03*
X166690000Y-52530000D03*
X164150000Y-52530000D03*
X161610000Y-52530000D03*
X159070000Y-52530000D03*
X153990000Y-52530000D03*
X151450000Y-52530000D03*
X148910000Y-52530000D03*
X146370000Y-52530000D03*
X143830000Y-52530000D03*
X141290000Y-52530000D03*
X138750000Y-52530000D03*
X136210000Y-52530000D03*
X116906000Y-52530000D03*
X132146000Y-52530000D03*
X129606000Y-52530000D03*
X127066000Y-52530000D03*
D11*
X156530000Y-95710000D03*
X156530000Y-67770000D03*
X180660000Y-52530000D03*
X105730000Y-52530000D03*
X187010000Y-100790000D03*
X104460000Y-100790000D03*
D10*
X109286000Y-52530000D03*
X111826000Y-52530000D03*
X114366000Y-52530000D03*
X119446000Y-52530000D03*
X121986000Y-52530000D03*
X124526000Y-52530000D03*
X118430000Y-100790000D03*
X143830000Y-100790000D03*
X146370000Y-100790000D03*
X148910000Y-100790000D03*
X151450000Y-100790000D03*
X153990000Y-100790000D03*
X156530000Y-100790000D03*
X159070000Y-100790000D03*
X164150000Y-100790000D03*
X166690000Y-100790000D03*
X169230000Y-100790000D03*
X171770000Y-100790000D03*
X174310000Y-100790000D03*
X176850000Y-100790000D03*
X179390000Y-100790000D03*
X181930000Y-100790000D03*
X184470000Y-52530000D03*
X187010000Y-52530000D03*
X184470000Y-55070000D03*
X187010000Y-55070000D03*
X184470000Y-57610000D03*
X187010000Y-57610000D03*
X184470000Y-60150000D03*
X187010000Y-60150000D03*
X184470000Y-62690000D03*
X187010000Y-62690000D03*
X184470000Y-65230000D03*
X187010000Y-65230000D03*
X184470000Y-67770000D03*
X187010000Y-67770000D03*
X184470000Y-70310000D03*
X187010000Y-70310000D03*
X184470000Y-72850000D03*
X187010000Y-72850000D03*
X184470000Y-75390000D03*
X187010000Y-75390000D03*
X184470000Y-77930000D03*
X187010000Y-77930000D03*
X184470000Y-80470000D03*
X187010000Y-80470000D03*
X184470000Y-83010000D03*
X187010000Y-83010000D03*
X184470000Y-85550000D03*
X187010000Y-85550000D03*
X184470000Y-88090000D03*
X187010000Y-88090000D03*
X184470000Y-90630000D03*
X187010000Y-90630000D03*
X184470000Y-93170000D03*
X187010000Y-93170000D03*
X184470000Y-95710000D03*
X187010000Y-95710000D03*
X154117000Y-72850000D03*
%TD*%
D12*
%TO.C,U5*%
X147260000Y-68760000D03*
D13*
X144720000Y-68760000D03*
X142180000Y-68760000D03*
X139640000Y-68760000D03*
X137100000Y-68760000D03*
X134560000Y-68760000D03*
X132020000Y-68760000D03*
X129480000Y-68760000D03*
X126940000Y-68760000D03*
X124400000Y-68760000D03*
X121860000Y-68760000D03*
X119320000Y-68760000D03*
X116780000Y-68760000D03*
X114240000Y-68760000D03*
X111700000Y-68760000D03*
X109160000Y-68760000D03*
X106620000Y-68760000D03*
X104080000Y-68760000D03*
X101540000Y-68760000D03*
X99000000Y-68760000D03*
X99000000Y-84000000D03*
X101540000Y-84000000D03*
X104080000Y-84000000D03*
X106620000Y-84000000D03*
X109160000Y-84000000D03*
X111700000Y-84000000D03*
X114240000Y-84000000D03*
X116780000Y-84000000D03*
X119320000Y-84000000D03*
X121860000Y-84000000D03*
X124400000Y-84000000D03*
X126940000Y-84000000D03*
X129480000Y-84000000D03*
X132020000Y-84000000D03*
X134560000Y-84000000D03*
X137100000Y-84000000D03*
X139640000Y-84000000D03*
X142180000Y-84000000D03*
X144720000Y-84000000D03*
X147260000Y-84000000D03*
%TD*%
D14*
%TO.C,U4*%
X122000000Y-63000000D03*
D15*
X120730000Y-63000000D03*
X119460000Y-63000000D03*
%TD*%
D14*
%TO.C,U3*%
X122000000Y-57000000D03*
D15*
X120730000Y-57000000D03*
X119460000Y-57000000D03*
%TD*%
D16*
%TO.C,U2*%
X109810000Y-62100000D03*
X107270000Y-62100000D03*
X104730000Y-62100000D03*
D17*
X102190000Y-62100000D03*
%TD*%
D12*
%TO.C,U1*%
X168200000Y-78375000D03*
D13*
X168200000Y-80915000D03*
X168200000Y-83455000D03*
X168200000Y-85995000D03*
X168200000Y-88535000D03*
X168200000Y-91075000D03*
X168200000Y-93615000D03*
X175820000Y-93615000D03*
X175820000Y-91075000D03*
X175820000Y-88535000D03*
X175820000Y-85995000D03*
X175820000Y-83455000D03*
X175820000Y-80915000D03*
X175820000Y-78375000D03*
%TD*%
D18*
%TO.C,RV2*%
X160000000Y-56445000D03*
X157460000Y-58985000D03*
X160000000Y-61525000D03*
%TD*%
%TO.C,RV1*%
X178000000Y-56445000D03*
X175460000Y-58985000D03*
X178000000Y-61525000D03*
%TD*%
D13*
%TO.C,R2*%
X163000000Y-66840000D03*
D19*
X163000000Y-77000000D03*
%TD*%
%TO.C,R1*%
X180000000Y-67000000D03*
D13*
X180000000Y-77160000D03*
%TD*%
D19*
%TO.C,C2*%
X151000000Y-84000000D03*
X151000000Y-89000000D03*
%TD*%
%TO.C,C1*%
X142500000Y-66000000D03*
X145000000Y-66000000D03*
%TD*%
M02*
